<?xml version="1.0" encoding="UTF-8" standalone="no"?>
<!-- Created with Inkscape (http://www.inkscape.org/) -->

<svg
   width="4040"
   height="1440"
   viewBox="0 0 1068.9166 381.00001"
   version="1.1"
   id="svg5"
   inkscape:version="1.1 (c68e22c387, 2021-05-23)"
   sodipodi:docname="logo.svg"
   xmlns:inkscape="http://www.inkscape.org/namespaces/inkscape"
   xmlns:sodipodi="http://sodipodi.sourceforge.net/DTD/sodipodi-0.dtd"
   xmlns="http://www.w3.org/2000/svg"
   xmlns:svg="http://www.w3.org/2000/svg">
  <sodipodi:namedview
     id="namedview7"
     pagecolor="#ffffff"
     bordercolor="#666666"
     borderopacity="1.0"
     inkscape:pageshadow="2"
     inkscape:pageopacity="0.0"
     inkscape:pagecheckerboard="0"
     inkscape:document-units="mm"
     showgrid="false"
     units="px"
     inkscape:zoom="0.26205012"
     inkscape:cx="585.76581"
     inkscape:cy="513.26059"
     inkscape:window-width="1920"
     inkscape:window-height="1017"
     inkscape:window-x="-8"
     inkscape:window-y="-8"
     inkscape:window-maximized="1"
     inkscape:current-layer="layer2" />
  <defs
     id="defs2" />
  <g
     inkscape:groupmode="layer"
     id="layer2"
     inkscape:label="bg">
    <rect
       style="fill:#ffffff;fill-opacity:1;stroke:#000000;stroke-width:0;stroke-linecap:round;stroke-linejoin:round;paint-order:stroke fill markers"
       id="rect954"
       width="1068.9166"
       height="381"
       x="5e-07"
       y="5e-07"
       rx="33.866665"
       ry="33.866665" />
  </g>
  <g
     inkscape:label="Layer 1"
     inkscape:groupmode="layer"
     id="layer1">
    <text
       xml:space="preserve"
       style="font-size:119.964px;line-height:1.25;font-family:'CMU Serif';-inkscape-font-specification:'CMU Serif';stroke-width:0.444312"
       x="60.242138"
       y="151.76956"
       id="text8350"><tspan
         sodipodi:role="line"
         id="tspan8348"
         style="font-size:119.964px;stroke-width:0.444312"
         x="60.242138"
         y="151.76956"><tspan
   style="font-size:155.51px;stroke-width:0.444312"
   id="tspan35327">N</tspan>EWCASTLE </tspan></text>
    <g
       id="g12"
       transform="matrix(6.2394252,0,0,6.2394252,520.33316,171.77218)">
      <path
         style="fill:#000000;stroke:none"
         d="M 0,0.00396729 V 0.60199 c 1.73,0 2.007,0 2.007,1.117 V 15.176 c 0,1.117 -0.27301,1.117 -2.007,1.117 v 0.598 h 8.496 c 3.16,0 5.211,-2.25 5.211,-4.5 0,-2.227 -2.028,-4.12904 -4.668,-4.305 C 11.406,7.61798 13.062,6.03601 13.062,4.15698 13.062,2.10602 11.039,0 7.851,0 Z M 3.60899,7.90698 v -6.328 C 3.60899,0.734985 3.656,0.609985 4.64,0.609985 h 3.145 c 2.429,0 3.511,1.984005 3.511,3.523015 0,1.88702 -1.50001,3.77398 -4.152,3.77398 z M 4.64,16.305 c -0.98,0 -1.027,-0.125 -1.027,-0.969 V 8.30896 h 4.54299 c 2.52701,0 3.75801,2.26604 3.75801,4.08604 0,1.816 -1.399,3.91 -4.07501,3.91"
         id="path14" />
      <path
         style="fill:#000000;stroke:none"
         d="m 18.41,5.99701 c 0,-1.06305 0.125,-1.18805 1.918,-1.18805 V 4.211 c -0.84,0.02399 -2.129,0.07501 -2.774,0.07501 -0.644,0 -1.933,-0.047 -2.773,-0.07501 v 0.59796 c 1.711,0 1.832,0.125 1.832,1.18805 V 15.114 c 0,1.062 -0.117,1.187 -1.832,1.187 v 0.598 c 0.84,-0.024 2.129,-0.07 2.773,-0.07 0.645,0 1.93,0.046 2.774,0.07 v -0.598 c -1.793,0 -1.918,-0.121 -1.918,-1.187"
         id="path16" />
      <path
         style="fill:#000000;stroke:none"
         d="m 21.75,4.20398 v 0.59698 c 1.636,0 1.757,0.14905 1.757,1.16401 V 15.133 c 0,1.016 -0.121,1.164 -1.757,1.164 v 0.598 h 7.476 c 2.746,0 4.481,-1.68 4.481,-3.406 0,-1.606 -1.586,-2.965 -3.739,-3.235 1.758,-0.36704 3.168,-1.48001 3.168,-2.91403 0,-1.55396 -1.73,-3.13599 -4.429,-3.13599 z M 25.109,10.004 V 5.86798 c 0,-0.98498 0.125,-1.05902 1,-1.05902 h 2.402 c 2.278,0 2.653,1.92206 2.653,2.51202 0,0.88599 -0.649,2.68302 -3.254,2.68302 z m 0,0.5 h 3.719 c 2.105,0 2.777,1.907 2.777,2.961 0,1.129 -0.816,2.836 -3.074,2.836 h -2.43 c -0.867,0 -0.988,-0.074 -0.988,-1.078"
         id="path18" />
      <path
         style="fill:#000000;stroke:none"
         d="m 48.628,0.0469971 h -14.3 L 33.91,5.52399 h 0.445 c 0.32,-4.10199 0.672,-4.820011 4.512,-4.820011 0.445,0 1.168,0 1.367,0 0.473,0.074036 0.473,0.375001 0.473,0.945011 V 15.129 c 0,0.895 -0.075,1.168 -2.161,1.168 h -0.703 v 0.598 c 1.188,-0.023 2.426,-0.047 3.641,-0.047 1.211,0 2.453,0.024 3.64,0.047 v -0.598 h -0.691 c -2.055,0 -2.129,-0.273 -2.129,-1.168 V 1.64899 c 0,-0.547 0,-0.843997 0.446,-0.945011 0.195,0 0.914,0 1.359,0 3.789,0 4.16,0.713991 4.48,4.820011 h 0.446"
         id="path20" />
      <path
         style="fill:#000000;stroke:none"
         d="m 60.957,18.133 h -0.446 c -0.543,3.672 -0.863,5.668 -5.219,5.668 h -3.437 c -0.988,0 -1.035,-0.125 -1.035,-0.976 v -6.922 h 2.336 c 2.336,0 2.558,0.855 2.558,2.945 h 0.399 v -6.441 h -0.399 c 0,2.054 -0.222,2.894 -2.558,2.894 H 50.82 V 9.164 c 0,-0.83502 0.047,-0.96002 1.035,-0.96002 h 3.387 c 3.832,0 4.277,1.52301 4.625,4.79602 h 0.445 L 59.718,7.52399 H 47.179 v 0.67999 c 1.754,0 2.035,0 2.035,1.11304 V 22.68 c 0,1.113 -0.277,1.113 -2.035,1.113 v 0.598 h 12.887"
         id="path22" />
      <path
         style="fill:#000000;stroke:none"
         d="m 67.73,7.52399 3.664,-5.297 C 71.761,1.70697 72.507,0.636963 74.539,0.609985 V 0.0119629 C 73.972,0.05896 73.031,0.05896 72.437,0.05896 c -0.816,0 -1.832,0 -2.449,-0.0469971 V 0.609985 c 0.793,0.073975 0.988,0.570005 0.988,0.968995 0,0.29602 -0.121,0.49603 -0.297,0.742 L 67.41,7.06299 63.746,1.70001 C 63.574,1.42999 63.55,1.35199 63.55,1.27802 c 0,-0.22303 0.27,-0.645024 1.09,-0.668035 V 0.0119629 C 63.847,0.05896 62.636,0.05896 61.82,0.05896 c -0.641,0 -1.879,0 -2.477,-0.0469971 V 0.609985 c 1.36,0 1.805,0.051026 2.352,0.820005 l 4.777,7.01599 -4.308,6.29302 c -1.063,1.539 -2.672,1.566 -3.145,1.566 v 0.598 c 0.566,-0.047 1.508,-0.047 2.102,-0.047 0.668,0 1.832,0 2.449,0.047 v -0.598 c -0.766,-0.074 -0.988,-0.57 -0.988,-0.969 0,-0.32 0.121,-0.496 0.246,-0.672 l 3.961,-5.781 4.308,6.332 c 0.195,0.274 0.195,0.348 0.195,0.422 0,0.195 -0.222,0.621 -1.089,0.672 v 0.598 c 0.793,-0.047 2.004,-0.047 2.82,-0.047 0.641,0 1.879,0 2.48,0.047 v -0.598 c -1.586,0 -1.836,-0.121 -2.328,-0.82"
         id="path24" />
    </g>
  </g>
</svg>
